<!-- Generated by IcoMoon.io -->
<svg version="1.1" xmlns="http://www.w3.org/2000/svg" width="32" height="32" viewBox="0 0 32 32">
<title>milestone-thin-border</title>
<path fill="none" stroke-linejoin="round" stroke-linecap="round" stroke-miterlimit="4" stroke-width="1" stroke="#000" d="M24 8h-17.333c-1.473 0-2.667 1.194-2.667 2.667v0 4c0 1.473 1.194 2.667 2.667 2.667v0h17.333l5.333-4.667-5.333-4.667z"></path>
<path fill="none" stroke-linejoin="round" stroke-linecap="round" stroke-miterlimit="4" stroke-width="1" stroke="#000" d="M16 17.333v10.667"></path>
<path fill="none" stroke-linejoin="round" stroke-linecap="round" stroke-miterlimit="4" stroke-width="1" stroke="#000" d="M16 4v4"></path>
</svg>

<svg version="1.1" xmlns="http://www.w3.org/2000/svg" width="32" height="32" viewBox="0 0 32 32">
<title>milestone-thin-border</title>
<path fill="none" stroke-linejoin="round" stroke-linecap="round" stroke-miterlimit="4" stroke-width="1" stroke="#000" d="M24 8h-17.333c-1.473 0-2.667 1.194-2.667 2.667v0 4c0 1.473 1.194 2.667 2.667 2.667v0h17.333l5.333-4.667-5.333-4.667z"></path>
<path fill="none" stroke-linejoin="round" stroke-linecap="round" stroke-miterlimit="4" stroke-width="1" stroke="#000" d="M16 17.333v10.667"></path>
<path fill="none" stroke-linejoin="round" stroke-linecap="round" stroke-miterlimit="4" stroke-width="1" stroke="#000" d="M16 4v4"></path>
</svg>