<!-- Generated by IcoMoon.io -->
<svg version="1.1" xmlns="http://www.w3.org/2000/svg" width="32" height="32" viewBox="0 0 32 32">
<title>scan-face</title>
<path fill="none" stroke-linejoin="round" stroke-linecap="round" stroke-miterlimit="4" stroke-width="1" stroke="#000" d="M4 9.333v-2.667c0-1.473 1.194-2.667 2.667-2.667v0h2.667"></path>
<path fill="none" stroke-linejoin="round" stroke-linecap="round" stroke-miterlimit="4" stroke-width="1" stroke="#000" d="M22.667 4h2.667c1.473 0 2.667 1.194 2.667 2.667v0 2.667"></path>
<path fill="none" stroke-linejoin="round" stroke-linecap="round" stroke-miterlimit="4" stroke-width="1" stroke="#000" d="M28 22.667v2.667c0 1.473-1.194 2.667-2.667 2.667v0h-2.667"></path>
<path fill="none" stroke-linejoin="round" stroke-linecap="round" stroke-miterlimit="4" stroke-width="1" stroke="#000" d="M9.333 28h-2.667c-1.473 0-2.667-1.194-2.667-2.667v0-2.667"></path>
<path fill="none" stroke-linejoin="round" stroke-linecap="round" stroke-miterlimit="4" stroke-width="1" stroke="#000" d="M10.667 18.667s2 2.667 5.333 2.667 5.333-2.667 5.333-2.667"></path>
<path fill="none" stroke-linejoin="round" stroke-linecap="round" stroke-miterlimit="4" stroke-width="1" stroke="#000" d="M12 12h0.013"></path>
<path fill="none" stroke-linejoin="round" stroke-linecap="round" stroke-miterlimit="4" stroke-width="1" stroke="#000" d="M20 12h0.013"></path>
</svg>
